# xmcd
#
# Track frame offsets: 
#        150
#        9935
#        19931
#        29626
#        38229
#        47279
#        56789
#        65834
#        75227
#        83581
#        93371
#        104392
#        113104
#        127102
#        138003
#        148596
#        160208
#        172492
#        183507
#        194422
#        204123
#        214455
#        223486
#        235854
#
# Disc length: 3275 seconds
#
# Revision: 3
# Processed by: cddbd v1.5.2PL0 Copyright (c) Steve Scherf et al.
# Submitted via: ExactAudioCopyFreeDBPlugin 1.0
#
DISCID=5c0cc918
DTITLE=Lester Flatt and Earl Scruggs - Seven Classic Albums
DYEAR=2014
DGENRE=Bluegrass
TTITLE0=Ground speed
TTITLE1=Home sweet home
TTITLE2=Sally Ann
TTITLE3=Little darlin' pal of mine
TTITLE4=Reuben
TTITLE5=Cripple Creek
TTITLE6=Lonesome road blues
TTITLE7=John Henry
TTITLE8=Fire ball mail
TTITLE9=Sally Goodwin
TTITLE10=Bugle call rag
TTITLE11=Cumberland gap
TTITLE12=Keep on the sunny side
TTITLE13=Foggy Mountain top
TTITLE14=False hearted lover
TTITLE15=Jimmie Brown, the newsboy
TTITLE16=You are my flower
TTITLE17=On the rock where Moses stood
TTITLE18=Forsaken love
TTITLE19=The homestead on the farm
TTITLE20=Pickin' in the wildwood
TTITLE21=Worried man blues
TTITLE22=The storms are on the ocean
TTITLE23=Gathering flowers from the hillside
EXTD=YEAR: 2014
EXTT0=
EXTT1=
EXTT2=
EXTT3=
EXTT4=
EXTT5=
EXTT6=
EXTT7=
EXTT8=
EXTT9=
EXTT10=
EXTT11=
EXTT12=
EXTT13=
EXTT14=
EXTT15=
EXTT16=
EXTT17=
EXTT18=
EXTT19=
EXTT20=
EXTT21=
EXTT22=
EXTT23=
PLAYORDER=
